<svg width="186" height="28" viewBox="0 0 186 28" fill="none" xmlns="http://www.w3.org/2000/svg">
<path d="M37.278 21V7.266H41.22C43.524 7.266 45.288 7.86 46.512 9.048C47.736 10.236 48.348 11.934 48.348 14.142C48.348 16.338 47.73 18.03 46.494 19.218C45.27 20.406 43.506 21 41.202 21H37.278ZM41.184 18.948C42.708 18.948 43.902 18.588 44.766 17.868C45.63 17.136 46.062 15.894 46.062 14.142C46.062 12.486 45.63 11.268 44.766 10.488C43.914 9.708 42.72 9.318 41.184 9.318H39.564V18.948H41.184ZM51.0318 21H48.6558L53.5698 7.266H56.0898L61.0038 21H58.6278L57.6198 17.994H52.0578L51.0318 21ZM52.7238 15.996H56.9358L55.3158 11.172C55.0878 10.464 54.9738 9.912 54.9738 9.516H54.6858C54.6858 9.948 54.5778 10.5 54.3618 11.172L52.7238 15.996ZM64.6741 21L59.7601 7.266H62.1361L65.4481 17.094C65.6761 17.766 65.7901 18.318 65.7901 18.75H66.0781C66.0781 18.282 66.1861 17.73 66.4021 17.094L69.7321 7.266H72.1081L67.1941 21H64.6741ZM75.6217 21H73.3357V7.266H75.6217V21ZM78.0424 21V7.266H81.9844C84.2884 7.266 86.0524 7.86 87.2764 9.048C88.5004 10.236 89.1124 11.934 89.1124 14.142C89.1124 16.338 88.4944 18.03 87.2584 19.218C86.0344 20.406 84.2704 21 81.9664 21H78.0424ZM81.9484 18.948C83.4724 18.948 84.6664 18.588 85.5304 17.868C86.3944 17.136 86.8264 15.894 86.8264 14.142C86.8264 12.486 86.3944 11.268 85.5304 10.488C84.6784 9.708 83.4844 9.318 81.9484 9.318H80.3284V18.948H81.9484ZM98.0211 21H95.7351V7.266H98.0211V13.098H104.231V7.266H106.517V21H104.231V15.132H98.0211V21ZM118.022 21H108.932V7.266H118.022V9.318H111.218V13.098H117.266V15.132H111.218V18.948H118.022V21ZM119.897 21V7.266H122.669L127.565 16.212C127.733 16.512 127.865 16.782 127.961 17.022C128.069 17.25 128.183 17.568 128.303 17.976L128.591 17.922C128.519 17.418 128.483 16.854 128.483 16.23V7.266H130.751V21H127.997L123.065 12C122.909 11.724 122.777 11.472 122.669 11.244C122.573 11.004 122.471 10.686 122.363 10.29L122.075 10.362C122.147 10.866 122.183 11.424 122.183 12.036V21H119.897ZM133.146 21V7.266H138.816C140.16 7.266 141.216 7.602 141.984 8.274C142.764 8.934 143.154 9.936 143.154 11.28C143.154 12.36 142.878 13.242 142.326 13.926C141.81 14.514 141.258 14.772 140.67 14.7L140.562 14.952C140.718 14.988 140.838 15.066 140.922 15.186C141.006 15.294 141.09 15.45 141.174 15.654L143.442 21H141.012L138.744 15.384H135.432V21H133.146ZM138.51 13.404C139.29 13.404 139.884 13.23 140.292 12.882C140.7 12.522 140.904 12.012 140.904 11.352C140.904 10.692 140.694 10.188 140.274 9.84C139.866 9.492 139.278 9.318 138.51 9.318H135.432V13.404H138.51ZM147.469 21H145.183V7.266H147.469V21ZM155.92 21.234C154.48 21.234 153.268 20.916 152.284 20.28C151.312 19.632 150.586 18.768 150.106 17.688C149.626 16.608 149.386 15.42 149.386 14.124C149.386 12.828 149.626 11.646 150.106 10.578C150.586 9.498 151.312 8.64 152.284 8.004C153.268 7.368 154.48 7.05 155.92 7.05C157.54 7.05 158.848 7.446 159.844 8.238C160.852 9.03 161.458 10.086 161.662 11.406H159.16C159.016 10.674 158.65 10.104 158.062 9.696C157.486 9.288 156.76 9.084 155.884 9.084C154.564 9.084 153.544 9.546 152.824 10.47C152.104 11.382 151.744 12.6 151.744 14.124C151.744 15.648 152.104 16.878 152.824 17.814C153.544 18.738 154.564 19.2 155.884 19.2C156.772 19.2 157.504 18.984 158.08 18.552C158.656 18.12 159.016 17.484 159.16 16.644H161.662C161.446 18.06 160.84 19.182 159.844 20.01C158.848 20.826 157.54 21.234 155.92 21.234ZM163.386 21V7.266H165.672V13.602H165.96C165.96 13.386 166.02 13.176 166.14 12.972C166.26 12.756 166.404 12.54 166.572 12.324L170.802 7.266H173.628L167.958 13.89L173.844 21H170.964L166.572 15.672C166.272 15.3 165.948 14.838 165.6 14.286L165.366 14.484C165.498 14.64 165.582 14.796 165.618 14.952C165.654 15.108 165.672 15.396 165.672 15.816V21H163.386ZM179.906 21.234C178.958 21.234 178.058 21.078 177.206 20.766C176.366 20.454 175.652 19.956 175.064 19.272C174.488 18.588 174.14 17.712 174.02 16.644H176.342C176.546 17.58 176.978 18.252 177.638 18.66C178.31 19.068 179.078 19.272 179.942 19.272C180.77 19.272 181.43 19.098 181.922 18.75C182.414 18.402 182.66 17.886 182.66 17.202C182.66 16.698 182.504 16.296 182.192 15.996C181.892 15.696 181.514 15.474 181.058 15.33C180.602 15.174 179.972 15.006 179.168 14.826C178.172 14.61 177.362 14.388 176.738 14.16C176.114 13.932 175.58 13.566 175.136 13.062C174.704 12.558 174.488 11.868 174.488 10.992C174.488 10.164 174.692 9.456 175.1 8.868C175.508 8.268 176.066 7.818 176.774 7.518C177.494 7.206 178.31 7.05 179.222 7.05C180.59 7.05 181.766 7.404 182.75 8.112C183.746 8.82 184.352 9.864 184.568 11.244H182.282C182.102 10.488 181.736 9.93 181.184 9.57C180.632 9.198 179.966 9.012 179.186 9.012C178.442 9.012 177.854 9.168 177.422 9.48C176.99 9.792 176.774 10.23 176.774 10.794C176.774 11.238 176.912 11.592 177.188 11.856C177.476 12.12 177.836 12.324 178.268 12.468C178.7 12.6 179.288 12.75 180.032 12.918C181.088 13.146 181.94 13.386 182.588 13.638C183.236 13.878 183.788 14.274 184.244 14.826C184.712 15.366 184.946 16.11 184.946 17.058C184.946 18.342 184.502 19.362 183.614 20.118C182.738 20.862 181.502 21.234 179.906 21.234Z" fill="#141414"/>
<g clip-path="url(#clip0_1257_39)">
<path fill-rule="evenodd" clip-rule="evenodd" d="M14.9879 2.59006L12.696 12.3198L17.9552 3.8192C18.1182 3.55593 18.484 3.51343 18.7028 3.73233L22.2677 7.29712C22.4866 7.51603 22.4441 7.88184 22.1808 8.04472L13.6802 13.304L23.41 11.0121C23.7113 10.9411 24 11.1698 24 11.4793V16.5207C24 16.8303 23.7113 17.0589 23.41 16.9879L13.6802 14.696L22.1808 19.9554C22.4441 20.1182 22.4866 20.484 22.2677 20.703L18.7028 24.2677C18.484 24.4866 18.1182 24.4441 17.9552 24.1808L12.696 15.6802L14.9879 25.41C15.0589 25.7113 14.8302 26 14.5207 26H9.47932C9.16974 26 8.94113 25.7113 9.01211 25.41L11.304 15.6802L6.04471 24.1808C5.88184 24.4441 5.51602 24.4866 5.29711 24.2677L1.73233 20.7028C1.51343 20.484 1.55593 20.1182 1.8192 19.9552L10.3197 14.696L0.590057 16.9879C0.288727 17.0589 0 16.8303 0 16.5207V11.4793C2.33897e-07 11.1698 0.288726 10.9411 0.590057 11.0121L10.3198 13.304L1.8192 8.04474C1.55593 7.88185 1.51343 7.51603 1.73233 7.29712L5.29711 3.73234C5.51602 3.51344 5.88184 3.55594 6.04471 3.81921L11.304 12.3198L9.01211 2.59006C8.94113 2.28873 9.16974 2 9.47932 2L14.5207 2C14.8303 2 15.0589 2.28873 14.9879 2.59006ZM12 15.3715C12.7574 15.3715 13.3715 14.7574 13.3715 14C13.3715 13.2426 12.7574 12.6286 12 12.6286C11.2426 12.6286 10.6286 13.2426 10.6286 14C10.6286 14.7574 11.2426 15.3715 12 15.3715Z" fill="#141414"/>
</g>
<defs>
<clipPath id="clip0_1257_39">
<rect width="24" height="24" fill="white" transform="translate(0 2)"/>
</clipPath>
</defs>
</svg>
